<svg width="271" height="166" viewBox="0 0 271 166" fill="none" xmlns="http://www.w3.org/2000/svg">
<path d="M66.5806 47.0784H71.7591V70.0117H66.5806V98.4523H44.3871V27.433H66.5806V47.0784ZM23.6731 42.5575V30.3922H42.1677V92.5341H0.739784V30.3922H19.9742V42.5575H23.6731ZM19.9742 66.9704V74.7792H23.6731V66.9704H19.9742ZM119.832 72.3133V75.519H143.505V96.233H73.965V75.519H97.6381V72.3955C94.0213 72.2859 90.6786 72.1489 87.6099 71.9845C84.5959 71.7653 82.0752 71.5187 80.0476 71.2447C78.0201 70.9159 76.7323 70.5871 76.1843 70.2583L76.1021 48.4758H104.378V46.2564H76.1021V29.5702H140.217V46.6674C140.217 47.2154 139.367 48.01 137.669 49.0512C135.97 50.0923 133.12 51.0787 129.12 52.0103C125.174 52.8871 119.722 53.4899 112.763 53.8187V56.038C118.242 55.764 122.736 55.353 126.243 54.805C129.805 54.2023 132.572 53.5721 134.545 52.9145C136.518 52.2021 137.915 51.5993 138.737 51.1061C139.614 50.6129 140.107 50.3389 140.217 50.2841L140.299 50.3663L142.518 69.4363C142.244 69.9295 141.066 70.3953 138.984 70.8337C136.901 71.2173 134.189 71.5461 130.846 71.8201C127.503 72.0393 123.832 72.2037 119.832 72.3133Z" fill="#1B4AB9"/>
<g filter="url(#filter0_b_16_9856)">
<circle cx="148.984" cy="97.6104" r="25.687" fill="#FDFF8B" fill-opacity="0.3"/>
</g>
<path d="M186.57 95.7407V85.5276H205.989V147.669H186.57V132.637H181.894C181.463 136.282 179.809 139.182 176.932 141.34C174.055 143.498 169.835 144.577 164.273 144.577C160.102 144.577 156.577 143.953 153.7 142.707C150.871 141.46 148.738 139.782 147.299 137.672C145.909 135.514 145.19 133.117 145.142 130.48V100.272C145.142 97.6826 145.837 95.3331 147.227 93.2234C148.618 91.0657 150.728 89.3635 153.557 88.1168C156.434 86.8701 160.006 86.2468 164.273 86.2468C169.164 86.2468 173 87.1339 175.781 88.908C178.562 90.6341 180.408 92.9117 181.319 95.7407H186.57ZM164.921 124.15V106.673C164.921 106.481 164.873 106.266 164.777 106.026C164.729 105.786 164.441 105.666 163.914 105.666C163.434 105.666 163.146 105.786 163.051 106.026C163.003 106.266 162.979 106.481 162.979 106.673V124.15C162.979 124.294 163.003 124.486 163.051 124.726C163.146 124.966 163.434 125.085 163.914 125.085C164.441 125.085 164.729 124.966 164.777 124.726C164.873 124.486 164.921 124.294 164.921 124.15ZM182.038 111.923V116.455H186.57V111.923H182.038ZM224.677 122.856C219.834 122.856 215.998 121.945 213.169 120.123C210.34 118.253 208.926 115.759 208.926 112.643V105.235C208.926 103.748 209.214 102.597 209.789 101.782C210.412 100.967 211.251 100.368 212.306 99.9842H208.854V88.5484H215.759V85.5276H233.02V88.5484H239.709V99.9842H236.616C237.575 100.368 238.319 100.967 238.846 101.782C239.421 102.549 239.709 103.652 239.709 105.091V112.643C239.709 115.759 238.415 118.253 235.825 120.123C233.236 121.945 229.52 122.856 224.677 122.856ZM268.766 124.582H260.495C263.42 125.205 265.698 126.62 267.328 128.826C268.958 131.031 269.773 133.501 269.773 136.234C269.773 138.631 269.222 140.741 268.119 142.563C267.016 144.385 265.506 145.799 263.588 146.806C261.67 147.813 259.488 148.317 257.043 148.317H222.088C219.69 148.317 217.533 147.789 215.615 146.734C213.697 145.728 212.162 144.313 211.012 142.491C209.909 140.669 209.357 138.583 209.357 136.234C209.453 134.076 210.101 132.11 211.299 130.336C212.498 128.514 214.056 127.051 215.974 125.949C217.892 124.798 219.93 124.222 222.088 124.222H255.82V111.78H253.59V122.64H241.291V86.1749H253.59V94.3022H255.82V85.5276H268.766V124.582ZM224.965 109.55V104.228C224.965 104.036 224.941 103.892 224.893 103.796C224.845 103.652 224.653 103.58 224.318 103.58C223.982 103.58 223.79 103.652 223.742 103.796C223.694 103.892 223.67 104.036 223.67 104.228V109.55C223.67 110.317 223.694 110.821 223.742 111.06C223.79 111.3 223.982 111.42 224.318 111.42C224.653 111.42 224.845 111.3 224.893 111.06C224.941 110.821 224.965 110.317 224.965 109.55ZM227.482 135.658H251.648C251.792 135.658 251.936 135.634 252.08 135.586C252.224 135.538 252.296 135.347 252.296 135.011C252.296 134.675 252.224 134.483 252.08 134.436C251.936 134.388 251.792 134.364 251.648 134.364H227.482C227.29 134.364 227.123 134.388 226.979 134.436C226.883 134.483 226.835 134.675 226.835 135.011C226.835 135.347 226.883 135.538 226.979 135.586C227.123 135.634 227.29 135.658 227.482 135.658Z" fill="#1B4AB9"/>
<defs>
<filter id="filter0_b_16_9856" x="102.748" y="51.3739" width="92.473" height="92.473" filterUnits="userSpaceOnUse" color-interpolation-filters="sRGB">
<feFlood flood-opacity="0" result="BackgroundImageFix"/>
<feGaussianBlur in="BackgroundImageFix" stdDeviation="10.2748"/>
<feComposite in2="SourceAlpha" operator="in" result="effect1_backgroundBlur_16_9856"/>
<feBlend mode="normal" in="SourceGraphic" in2="effect1_backgroundBlur_16_9856" result="shape"/>
</filter>
</defs>
</svg>
