<svg width="356" height="91" viewBox="0 0 356 91" fill="none" xmlns="http://www.w3.org/2000/svg">
<rect x="4" y="18" width="352" height="73" fill="url(#paint0_linear_41_649)"/>
<g filter="url(#filter0_ii_41_649)">
<rect x="235.733" y="33.9424" width="100" height="40" rx="4" fill="white"/>
<path d="M256.803 47.3955V59.5498H255.777V53.1787H253.986V58.9209H253.002V47.6689H253.986V52.29H255.777V47.3955H256.803ZM251.416 48.8857V49.7744H247.93V55.626C249.605 55.6191 250.767 55.5576 252.113 55.2842L252.209 56.1865C250.746 56.4873 249.502 56.542 247.643 56.542H246.863V48.8857H251.416ZM261.779 48.3389C262.894 48.3457 263.796 48.9951 264.322 50.1162H267.522V47.3955H268.588V59.5771H267.522V54.8604H264.404C263.892 56.0908 262.955 56.8018 261.779 56.8018C259.988 56.8018 258.731 55.1611 258.731 52.5771C258.731 49.9932 259.988 48.3525 261.779 48.3389ZM261.779 49.2959C260.576 49.3096 259.756 50.5947 259.756 52.5771C259.756 54.5596 260.576 55.8447 261.779 55.8447C262.969 55.8447 263.803 54.5596 263.803 52.5771C263.803 50.5947 262.969 49.3096 261.779 49.2959ZM264.637 51.0186C264.746 51.4902 264.815 52.0098 264.815 52.5771C264.815 53.0762 264.76 53.5479 264.678 53.9717H267.522V51.0186H264.637ZM284.502 47.3955V59.5498H283.449V53.2607H281.699V58.9209H280.688V47.6689H281.699V52.3447H283.449V47.3955H284.502ZM275.807 48.8857V55.4482C277.017 55.4346 278.302 55.3525 279.785 55.0518L279.922 56.0088C278.227 56.3096 276.832 56.4053 275.492 56.4053H274.74V48.8857H275.807ZM296.301 55.2295V59.5498H295.221V56.0908H288.125V55.2295H296.301ZM296.301 47.3955V54.5596H295.221V52.8096H292.09C291.523 53.5 290.627 53.9102 289.574 53.9033C287.756 53.917 286.416 52.7139 286.416 50.9912C286.416 49.2959 287.756 48.0928 289.574 48.0928C290.62 48.0928 291.516 48.5029 292.09 49.1865H295.221V47.3955H296.301ZM289.574 49.0088C288.33 49.0088 287.442 49.8428 287.442 50.9912C287.442 52.1807 288.33 53.001 289.574 53.001C290.764 53.001 291.68 52.1807 291.68 50.9912C291.68 49.8428 290.764 49.0088 289.574 49.0088ZM292.568 51.9209H295.221V50.0752H292.568C292.664 50.3623 292.719 50.6631 292.719 50.9912C292.719 51.3193 292.664 51.6338 292.568 51.9209ZM311.326 47.4092V51.0869H313.145V51.9893H311.326V55.5576H310.246V47.4092H311.326ZM301.783 54.3135C302.754 54.3135 303.889 54.3135 305.078 54.2725V53.3838C303.663 53.2607 302.754 52.5977 302.754 51.5928C302.754 50.4854 303.889 49.8018 305.598 49.8018C307.32 49.8018 308.442 50.4854 308.455 51.5928C308.442 52.5908 307.553 53.2539 306.145 53.3838V54.2314C307.279 54.1768 308.428 54.0879 309.494 53.9307L309.59 54.71C306.951 55.1748 304.039 55.1885 301.906 55.1885L301.783 54.3135ZM311.326 56.1592V59.5498H310.246V57.0205H303.274V56.1592H311.326ZM309.125 48.5166V49.3369H302.084V48.5166H305.078V47.2998H306.145V48.5166H309.125ZM305.598 50.5674C304.477 50.5537 303.779 50.9502 303.779 51.5928C303.779 52.2217 304.477 52.6592 305.598 52.6455C306.719 52.6592 307.43 52.2217 307.43 51.5928C307.43 50.9502 306.719 50.5537 305.598 50.5674ZM323.973 47.4092V56.2959H322.906V47.4092H323.973ZM324.356 58.3877V59.29H316.125V55.3936H317.192V58.3877H324.356ZM317.41 48.2568C319.229 48.2568 320.596 49.4873 320.596 51.2373C320.596 53.0146 319.229 54.2314 317.41 54.2314C315.592 54.2314 314.225 53.0146 314.225 51.2373C314.225 49.4873 315.592 48.2568 317.41 48.2568ZM317.41 49.2002C316.18 49.2002 315.264 50.0479 315.277 51.2373C315.264 52.4541 316.18 53.2881 317.41 53.2881C318.613 53.2881 319.543 52.4541 319.543 51.2373C319.543 50.0479 318.613 49.2002 317.41 49.2002Z" fill="#1B4AB9"/>
</g>
<path opacity="0.5" d="M31.5616 65.0124C-4.76744 14.4424 -0.767456 23.9424 80.0859 36.9969" stroke="#B2A4FF" stroke-width="1.63666" stroke-dasharray="6.55 6.55"/>
<path opacity="0.5" d="M1.967 88.6387C41.7494 58.4349 66.6838 42.981 116.474 18.408" stroke="#B2A4FF"/>
<path d="M35.4923 44.8389C36.6066 44.8457 37.5089 45.4951 38.0353 46.6162H41.2345V43.8955H42.3009V56.0771H41.2345V51.3604H38.1173C37.6046 52.5908 36.6681 53.3018 35.4923 53.3018C33.7013 53.3018 32.4435 51.6611 32.4435 49.0771C32.4435 46.4932 33.7013 44.8525 35.4923 44.8389ZM35.4923 45.7959C34.2892 45.8096 33.4689 47.0947 33.4689 49.0771C33.4689 51.0596 34.2892 52.3447 35.4923 52.3447C36.6818 52.3447 37.5157 51.0596 37.5157 49.0771C37.5157 47.0947 36.6818 45.8096 35.4923 45.7959ZM38.3497 47.5186C38.4591 47.9902 38.5275 48.5098 38.5275 49.0771C38.5275 49.5762 38.4728 50.0479 38.3907 50.4717H41.2345V47.5186H38.3497ZM54.6466 43.8955V51.5928H53.6212V48.1064H51.9943V51.1553H50.9825V44.1416H51.9943V47.2178H53.6212V43.8955H54.6466ZM50.4904 45.3584V46.2197H44.256V45.3584H46.8536V43.9912H47.92V45.3584H50.4904ZM47.3868 46.876C48.9318 46.876 49.9845 47.6826 49.9982 48.9541C49.9845 50.1982 48.9318 51.0186 47.3868 51.0186C45.8556 51.0186 44.7755 50.1982 44.7892 48.9541C44.7755 47.6826 45.8556 46.876 47.3868 46.876ZM47.3868 47.6689C46.4161 47.6689 45.7462 48.1885 45.7462 48.9541C45.7462 49.7061 46.4161 50.2119 47.3868 50.2119C48.3575 50.2119 49.0275 49.7061 49.0275 48.9541C49.0275 48.1885 48.3575 47.6689 47.3868 47.6689ZM50.6271 51.7979C53.1837 51.7979 54.715 52.5635 54.715 53.9307C54.715 55.2568 53.1837 56.0225 50.6271 56.0225C48.0704 56.0225 46.5392 55.2568 46.5529 53.9307C46.5392 52.5635 48.0704 51.7979 50.6271 51.7979ZM50.6271 52.6455C48.7404 52.6318 47.6056 53.0967 47.6193 53.9307C47.6056 54.7236 48.7404 55.1885 50.6271 55.1885C52.5138 55.1885 53.6349 54.7236 53.6486 53.9307C53.6349 53.0967 52.5138 52.6318 50.6271 52.6455ZM69.3439 43.8955V48.8447H71.3126V49.7471H69.3439V56.0498H68.2775V43.8955H69.3439ZM66.1993 45.208C66.1993 48.6533 64.5861 51.7842 60.6212 53.7393L60.0197 52.8916C63.1642 51.3262 64.8732 48.9883 65.1193 46.1104H60.5802V45.208H66.1993ZM82.0861 43.8955V56.0498H81.006V43.8955H82.0861ZM78.4904 45.2217C78.4767 48.7217 76.8497 51.8115 72.7755 53.7666L72.1876 52.8916C75.4757 51.333 77.1505 49.002 77.3966 46.0967H72.7482V45.2217H78.4904ZM97.7267 43.9092V52.8232H96.6466V48.1611H94.1447V47.2725H96.6466V43.9092H97.7267ZM98.0685 54.8877V55.79H89.92V52.0166H91.0001V54.8877H98.0685ZM91.8751 46.4111C91.8751 47.9834 93.0919 49.5146 94.8693 50.1162L94.3087 50.9775C92.9347 50.4854 91.8751 49.46 91.3556 48.2021C90.8292 49.6035 89.7081 50.7246 88.2657 51.2646L87.7052 50.3896C89.4962 49.7607 90.795 48.1611 90.795 46.4111V45.7822H88.047V44.8936H94.5958V45.7822H91.8751V46.4111ZM113.654 43.8955V56.0498H112.629V49.6787H110.838V55.4209H109.854V44.1689H110.838V48.79H112.629V43.8955H113.654ZM108.268 45.3857V46.2744H104.781V52.126C106.456 52.1191 107.618 52.0576 108.965 51.7842L109.061 52.6865C107.598 52.9873 106.354 53.042 104.494 53.042H103.715V45.3857H108.268ZM118.631 44.8389C119.745 44.8457 120.648 45.4951 121.174 46.6162H124.373V43.8955H125.44V56.0771H124.373V51.3604H121.256C120.743 52.5908 119.807 53.3018 118.631 53.3018C116.84 53.3018 115.582 51.6611 115.582 49.0771C115.582 46.4932 116.84 44.8525 118.631 44.8389ZM118.631 45.7959C117.428 45.8096 116.608 47.0947 116.608 49.0771C116.608 51.0596 117.428 52.3447 118.631 52.3447C119.82 52.3447 120.654 51.0596 120.654 49.0771C120.654 47.0947 119.82 45.8096 118.631 45.7959ZM121.488 47.5186C121.598 47.9902 121.666 48.5098 121.666 49.0771C121.666 49.5762 121.611 50.0479 121.529 50.4717H124.373V47.5186H121.488ZM136.965 43.9092V47.915H138.797V48.8174H136.965V53.0146H135.899V43.9092H136.965ZM134.736 45.3994V46.2744H127.49V45.3994H130.58V43.9092H131.647V45.3994H134.736ZM131.113 46.9443C132.85 46.9443 134.026 47.833 134.039 49.2139C134.026 50.5811 132.85 51.4561 131.113 51.4561C129.363 51.4561 128.174 50.5811 128.188 49.2139C128.174 47.833 129.363 46.9443 131.113 46.9443ZM131.113 47.792C129.965 47.792 129.199 48.3525 129.213 49.2139C129.199 50.0752 129.965 50.6221 131.113 50.6084C132.248 50.6221 133.014 50.0752 133.027 49.2139C133.014 48.3525 132.248 47.792 131.113 47.792ZM137.526 54.8877V55.79H129.363V52.29H130.416V54.8877H137.526ZM154.151 49.0361V49.9111H149.133V51.1143H152.729V53.835H145.51V55.0654H153.098V55.9131H144.443V53.0283H151.676V51.9482H144.416V51.1143H148.067V49.9111H143.076V49.0361H154.151ZM152.715 44.3057V48.0107H144.512V44.3057H152.715ZM145.578 45.167V47.1494H151.649V45.167H145.578ZM166.25 49.7744V50.6631H161.233V52.0986H164.897V55.8857H156.529V52.0986H160.18V50.6631H155.176V49.7744H166.25ZM165.197 44.292V45.1807H163.324V47.7373H165.156V48.626H156.256V47.7373H158.088V45.1807H156.215V44.292H165.197ZM157.596 52.9463V55.0107H163.844V52.9463H157.596ZM159.154 47.7373H162.258V45.1807H159.154V47.7373ZM42.6017 60.8955V73.0498H41.549V66.7607H39.799V72.4209H38.7872V61.1689H39.799V65.8447H41.549V60.8955H42.6017ZM33.9064 62.3857V68.9482C35.1163 68.9346 36.4015 68.8525 37.8849 68.5518L38.0216 69.5088C36.3263 69.8096 34.9318 69.9053 33.5919 69.9053H32.84V62.3857H33.9064ZM54.4005 68.7295V73.0498H53.3204V69.5908H46.2247V68.7295H54.4005ZM54.4005 60.8955V68.0596H53.3204V66.3096H50.1896C49.6222 67 48.7267 67.4102 47.674 67.4033C45.8556 67.417 44.5157 66.2139 44.5157 64.4912C44.5157 62.7959 45.8556 61.5928 47.674 61.5928C48.7198 61.5928 49.6154 62.0029 50.1896 62.6865H53.3204V60.8955H54.4005ZM47.674 62.5088C46.4298 62.5088 45.5411 63.3428 45.5411 64.4912C45.5411 65.6807 46.4298 66.501 47.674 66.501C48.8634 66.501 49.7794 65.6807 49.7794 64.4912C49.7794 63.3428 48.8634 62.5088 47.674 62.5088ZM50.6681 65.4209H53.3204V63.5752H50.6681C50.7638 63.8623 50.8185 64.1631 50.8185 64.4912C50.8185 64.8193 50.7638 65.1338 50.6681 65.4209ZM61.9611 61.1143C64.6681 61.1143 66.254 61.8525 66.254 63.2061C66.254 64.5869 64.6681 65.3252 61.9611 65.3389C59.254 65.3252 57.6544 64.5869 57.6544 63.2061C57.6544 61.8525 59.254 61.1143 61.9611 61.1143ZM61.9611 61.9209C59.9376 61.9209 58.7618 62.4131 58.7755 63.2061C58.7618 64.0537 59.9376 64.5186 61.9611 64.5186C63.9708 64.5186 65.1603 64.0537 65.1603 63.2061C65.1603 62.4131 63.9708 61.9209 61.9611 61.9209ZM67.4982 66.1592V67.0342H56.424V66.1592H67.4982ZM66.0763 68.0869V70.8076H58.8575V72.0654H66.4454V72.9131H57.7911V70.0146H65.0236V68.9072H57.7638V68.0869H66.0763ZM81.5255 60.9092V64.5869H83.3439V65.4893H81.5255V69.0576H80.4454V60.9092H81.5255ZM71.9825 67.8135C72.9532 67.8135 74.088 67.8135 75.2775 67.7725V66.8838C73.8624 66.7607 72.9532 66.0977 72.9532 65.0928C72.9532 63.9854 74.088 63.3018 75.797 63.3018C77.5197 63.3018 78.6407 63.9854 78.6544 65.0928C78.6407 66.0908 77.7521 66.7539 76.3439 66.8838V67.7314C77.4786 67.6768 78.6271 67.5879 79.6935 67.4307L79.7892 68.21C77.1505 68.6748 74.2384 68.6885 72.1056 68.6885L71.9825 67.8135ZM81.5255 69.6592V73.0498H80.4454V70.5205H73.4728V69.6592H81.5255ZM79.3243 62.0166V62.8369H72.2833V62.0166H75.2775V60.7998H76.3439V62.0166H79.3243ZM75.797 64.0674C74.6759 64.0537 73.9786 64.4502 73.9786 65.0928C73.9786 65.7217 74.6759 66.1592 75.797 66.1455C76.9181 66.1592 77.629 65.7217 77.629 65.0928C77.629 64.4502 76.9181 64.0537 75.797 64.0674ZM94.172 60.9092V69.7959H93.1056V60.9092H94.172ZM94.5548 71.8877V72.79H86.3243V68.8936H87.3907V71.8877H94.5548ZM87.6095 61.7568C89.4279 61.7568 90.795 62.9873 90.795 64.7373C90.795 66.5146 89.4279 67.7314 87.6095 67.7314C85.7911 67.7314 84.424 66.5146 84.424 64.7373C84.424 62.9873 85.7911 61.7568 87.6095 61.7568ZM87.6095 62.7002C86.379 62.7002 85.463 63.5479 85.4767 64.7373C85.463 65.9541 86.379 66.7881 87.6095 66.7881C88.8126 66.7881 89.7423 65.9541 89.7423 64.7373C89.7423 63.5479 88.8126 62.7002 87.6095 62.7002ZM105.643 60.8955V65.9131H107.68V66.8018H105.643V73.0498H104.576V60.8955H105.643ZM103.401 62.8506V63.7393H96.1681V62.8506H99.299V61.0459H100.365V62.8506H103.401ZM99.8458 64.751C101.568 64.751 102.813 65.8994 102.826 67.54C102.813 69.1807 101.568 70.3291 99.8458 70.3291C98.1095 70.3291 96.8517 69.1807 96.8654 67.54C96.8517 65.8994 98.1095 64.751 99.8458 64.751ZM99.8458 65.6533C98.7111 65.6533 97.8771 66.4463 97.8907 67.54C97.8771 68.6475 98.7111 69.4268 99.8458 69.4131C100.967 69.4268 101.787 68.6475 101.801 67.54C101.787 66.4463 100.967 65.6533 99.8458 65.6533ZM111.945 64.3545C111.945 66.2822 112.889 68.374 114.502 69.3311L113.887 70.165C112.718 69.4541 111.877 68.1553 111.453 66.6787C111.002 68.292 110.1 69.6797 108.883 70.4248L108.199 69.6182C109.881 68.6338 110.906 66.4736 110.906 64.3955V62.0439H111.945V64.3545ZM118.754 60.8955V73.0498H117.715V60.8955H118.754ZM116.238 61.1553V72.4346H115.227V66.1729H113.162V65.2568H115.227V61.1553H116.238ZM131.565 70.5889V71.4912H120.436V70.5889H123.197V67.3076C122.158 66.7676 121.529 65.8926 121.529 64.792C121.529 62.9053 123.375 61.6748 125.973 61.6611C128.57 61.6748 130.416 62.9053 130.416 64.792C130.416 65.8721 129.808 66.7402 128.803 67.2803V70.5889H131.565ZM125.973 62.5498C123.977 62.5361 122.568 63.4385 122.568 64.792C122.568 66.1455 123.977 67.0615 125.973 67.0615C127.955 67.0615 129.377 66.1455 129.377 64.792C129.377 63.4385 127.955 62.5361 125.973 62.5498ZM124.25 70.5889H127.723V67.6904C127.196 67.834 126.609 67.9092 125.973 67.9092C125.351 67.9092 124.77 67.8408 124.25 67.7041V70.5889ZM133.82 72.0244C133.342 72.0244 132.932 71.6279 132.945 71.1357C132.932 70.6572 133.342 70.2607 133.82 70.2607C134.299 70.2607 134.695 70.6572 134.695 71.1357C134.695 71.6279 134.299 72.0244 133.82 72.0244Z" fill="white"/>
<defs>
<filter id="filter0_ii_41_649" x="234.733" y="32.9424" width="102" height="42" filterUnits="userSpaceOnUse" color-interpolation-filters="sRGB">
<feFlood flood-opacity="0" result="BackgroundImageFix"/>
<feBlend mode="normal" in="SourceGraphic" in2="BackgroundImageFix" result="shape"/>
<feColorMatrix in="SourceAlpha" type="matrix" values="0 0 0 0 0 0 0 0 0 0 0 0 0 0 0 0 0 0 127 0" result="hardAlpha"/>
<feOffset dx="1" dy="1"/>
<feGaussianBlur stdDeviation="2"/>
<feComposite in2="hardAlpha" operator="arithmetic" k2="-1" k3="1"/>
<feColorMatrix type="matrix" values="0 0 0 0 0.331944 0 0 0 0 0.621435 0 0 0 0 1 0 0 0 0.25 0"/>
<feBlend mode="normal" in2="shape" result="effect1_innerShadow_41_649"/>
<feColorMatrix in="SourceAlpha" type="matrix" values="0 0 0 0 0 0 0 0 0 0 0 0 0 0 0 0 0 0 127 0" result="hardAlpha"/>
<feOffset dx="-1" dy="-1"/>
<feGaussianBlur stdDeviation="2"/>
<feComposite in2="hardAlpha" operator="arithmetic" k2="-1" k3="1"/>
<feColorMatrix type="matrix" values="0 0 0 0 0.376389 0 0 0 0 0.667408 0 0 0 0 1 0 0 0 0.25 0"/>
<feBlend mode="normal" in2="effect1_innerShadow_41_649" result="effect2_innerShadow_41_649"/>
</filter>
<linearGradient id="paint0_linear_41_649" x1="4" y1="18" x2="391" y2="99.5" gradientUnits="userSpaceOnUse">
<stop stop-color="#1B4AB9"/>
<stop offset="1" stop-color="#0C2153"/>
</linearGradient>
</defs>
</svg>
